<svg xmlns="http://www.w3.org/2000/svg" height="16" width="16" viewBox="0 0 48 48"><title>people network</title><g stroke-linecap="round" fill="#28282B" stroke-linejoin="round" class="nc-icon-wrapper"><circle data-color="color-2" fill="none" stroke="#28282B" stroke-width="2" cx="24" cy="6" r="4"></circle> <circle data-color="color-2" fill="none" stroke="#28282B" stroke-width="2" cx="42" cy="16" r="4"></circle> <circle data-color="color-2" fill="none" stroke="#28282B" stroke-width="2" cx="6" cy="16" r="4"></circle> <path data-cap="butt" fill="none" stroke="#28282B" stroke-width="2" d="M18.91,36.172l-6.486,2.789 C10.954,39.591,10,41.037,10,42.638V46h28v-3.362c0-1.6-0.954-3.046-2.424-3.677l-6.501-2.776"></path> <path fill="none" stroke="#28282B" stroke-width="2" d="M24,38L24,38 c-4.418,0-8-3.582-8-8v-2c0-4.418,3.582-8,8-8h0c4.418,0,8,3.582,8,8v2C32,34.418,28.418,38,24,38z"></path></g></svg>